<?xml version="1.0" encoding="UTF-8"?>
<svg width="4122px" height="3908px" viewBox="0 0 4122 3908" version="1.1" xmlns="http://www.w3.org/2000/svg" xmlns:xlink="http://www.w3.org/1999/xlink">
    <!-- Generator: Sketch 43.1 (39012) - http://www.bohemiancoding.com/sketch -->
    <title>Group 5</title>
    <desc>Created with Sketch.</desc>
    <defs></defs>
    <g id="Page-1" stroke="none" stroke-width="1" fill="none" fill-rule="evenodd">
        <g id="Group-5" transform="translate(50.000000, 50.000000)">
            <g id="Group-14" transform="translate(0.298032, 0.200000)" fill="#010101">
                <g id="Group-8" transform="translate(1003.329539, 789.888856)">
                    <g id="Page-1" transform="translate(0.918945, 0.000000)">
                        <path d="M341.407889,2159.24477 C260.902529,2159.24477 193.302144,2092.89172 193.302144,2013.86557 L193.302144,1729.33275 C193.302144,1703.99169 215.834832,1681.87268 241.652318,1681.87268 C267.468645,1681.87268 290.002493,1703.99055 290.002493,1729.33275 L290.002493,2013.86557 C290.002493,2042.31885 312.535182,2064.43559 341.520938,2064.43559 L1823.01319,2064.43559 C1852.00011,2064.43559 1874.53164,2042.31771 1874.53164,2013.86557 L1874.53164,145.395446 C1874.53164,116.942164 1851.99895,94.8254279 1823.01319,94.8254279 L341.40499,94.8254279 C312.418075,94.8254279 289.886545,116.943302 289.886545,145.395446 L289.886545,429.928266 C289.886545,455.269328 267.353857,477.388341 241.536371,477.388341 C215.718885,477.388341 193.186196,455.270466 193.186196,429.928266 L193.186196,145.395446 C193.186196,66.3721458 260.783682,0.0162468029 341.291941,0.0162468029 L1822.7842,0.0162468029 C1903.28956,0.0162468029 1970.88994,66.3693005 1970.88994,145.395446 L1970.88994,2013.86557 C1971.11662,2092.88887 1903.51855,2159.24477 1823.01029,2159.24477 L341.407889,2159.24477 Z" id="Fill-1"></path>
                        <path d="M1082.13952,1188.73177 C911.3892,1188.73177 769.747537,1052.80191 769.747537,882.090752 C769.747537,711.379596 908.226727,575.449732 1082.13952,575.449732 C1252.88985,575.449732 1394.53151,711.379596 1394.53151,882.090752 C1394.53151,1052.69948 1252.88115,1188.73177 1082.13952,1188.73177 Z M1082.13952,673.357475 C963.020693,673.357475 866.323242,768.163811 866.323242,885.200696 C866.323242,1002.12661 962.907644,1097.04392 1082.13952,1097.04392 C1201.25835,1097.04392 1297.9558,1002.23758 1297.9558,885.200696 C1297.9558,768.163811 1201.3714,673.357475 1082.13952,673.357475 Z" id="Fill-2"></path>
                        <path d="M1533.14694,1517.48099 L631.277042,1517.48099 L631.277042,1470.02092 C631.277042,1264.5114 834.185449,1100.12825 1082.16851,1100.12825 C1330.14287,1100.12825 1533.05998,1267.73516 1533.05998,1470.02092 L1533.14694,1517.48099 Z M731.136965,1422.56369 L1429.98251,1422.56369 C1400.99559,1292.96753 1256.06102,1194.93743 1078.97995,1194.93743 C908.229626,1194.93743 760.123881,1296.19128 731.136965,1422.56369 Z" id="Fill-3"></path>
                        <path d="M415.440471,686.019186 L48.3501748,686.019186 C22.5338482,686.019186 0,663.901312 0,638.559111 C0,613.217765 22.5326888,591.099037 48.3501748,591.099037 L415.556418,591.099037 C441.372745,591.099037 463.906593,613.216911 463.906593,638.559111 C463.793544,663.900174 441.260565,686.019186 415.443369,686.019186 L415.440471,686.019186 Z" id="Fill-4"></path>
                        <path d="M415.440471,979.998496 L48.3501748,979.998496 C22.5338482,979.998496 0,957.880622 0,932.538421 C0,907.196221 22.5326888,885.078347 48.3501748,885.078347 L415.556418,885.078347 C441.372745,885.078347 463.906593,907.196221 463.906593,932.538421 C463.793544,957.879483 441.260565,979.998496 415.443369,979.998496 L415.440471,979.998496 Z" id="Fill-5"></path>
                        <path d="M415.440471,1270.84794 L48.3501748,1270.84794 C22.5338482,1270.84794 0,1248.73007 0,1223.38787 C0,1198.04567 22.5326888,1175.9278 48.3501748,1175.9278 L415.556418,1175.9278 C441.372745,1175.9278 463.906593,1198.04567 463.906593,1223.38787 C463.793544,1248.72893 441.260565,1270.84794 415.443369,1270.84794 L415.440471,1270.84794 Z" id="Fill-6"></path>
                        <path d="M415.440471,1564.82725 L48.3501748,1564.82725 C22.5338482,1564.82725 0,1542.70938 0,1517.36718 C0,1492.02498 22.5326888,1469.90711 48.3501748,1469.90711 L415.556418,1469.90711 C441.372745,1469.90711 463.906593,1492.02498 463.906593,1517.36718 C463.793544,1542.70824 441.260565,1564.82725 415.443369,1564.82725 L415.440471,1564.82725 Z" id="Fill-7"></path>
                    </g>
                </g>
            </g>
            <ellipse id="Oval" stroke="#000000" stroke-width="100" cx="2010.69395" cy="1903.77085" rx="2010.39592" ry="1903.57085"></ellipse>
        </g>
    </g>
</svg>